<svg width="16" height="18" viewBox="0 0 16 18" fill="none" xmlns="http://www.w3.org/2000/svg">
<path d="M4.16671 11.5C4.90628 11.4998 5.62454 11.2523 6.20712 10.7967L8.03879 12.6283L8.62796 12.0392L6.79629 10.2075C7.25212 9.62486 7.49986 8.90643 7.50004 8.16667C7.50004 6.32875 6.00462 4.83334 4.16671 4.83334C2.32879 4.83334 0.833374 6.32875 0.833374 8.16667C0.833374 10.0046 2.32879 11.5 4.16671 11.5ZM4.16671 5.66667C5.54546 5.66667 6.66671 6.78792 6.66671 8.16667C6.66671 9.54542 5.54546 10.6667 4.16671 10.6667C2.78796 10.6667 1.66671 9.54542 1.66671 8.16667C1.66671 6.78792 2.78796 5.66667 4.16671 5.66667Z" fill="#8E8E8E"/>
</svg>
