<svg width="22" height="22" viewBox="0 0 22 22" fill="none" xmlns="http://www.w3.org/2000/svg">
<g clip-path="url(#clip0_1_1543)">
<path d="M18.6563 5.57703C19.0707 6.58859 19.5729 7.71473 19.8259 8.71912C20.0528 9.60995 20.146 10.5295 20.1021 11.4476C20.0593 12.3648 19.8779 13.2702 19.564 14.1332C19.2539 14.9839 18.8159 15.7826 18.2652 16.5018C17.7165 17.213 17.0619 17.8361 16.3242 18.3495C16.0502 18.5429 15.7664 18.7222 15.4739 18.8866C15.1821 19.0513 14.8832 19.1999 14.577 19.3324C13.9233 19.6223 13.2383 19.8361 12.5356 19.9698C11.846 20.1011 11.1433 20.1504 10.4421 20.1166L10.2251 20.1023L9.72998 21.9428L10.069 21.9696C10.963 22.0379 11.862 21.9952 12.7455 21.8425C13.6419 21.6843 14.5158 21.4186 15.3484 21.0512C15.7 20.896 16.0486 20.7211 16.3942 20.5266C16.7297 20.3368 17.0669 20.1237 17.4024 19.891C19.2164 18.631 20.5945 16.8409 21.3471 14.767C22.1033 12.676 22.2096 10.4059 21.652 8.25363C21.2933 7.22059 20.9022 5.85633 20.1613 4.81255C19.6716 4.12146 18.2365 4.53146 18.6634 5.57703H18.6563ZM10.0457 8.01014C10.0401 7.88122 10.0607 7.75252 10.1063 7.63176C10.1519 7.51101 10.2215 7.40072 10.3109 7.30753C10.4003 7.21433 10.5077 7.14017 10.6266 7.0895C10.7455 7.03884 10.8734 7.01272 11.0027 7.01272C11.132 7.01272 11.26 7.03884 11.3789 7.0895C11.4978 7.14017 11.6052 7.21433 11.6946 7.30753C11.784 7.40072 11.8536 7.51101 11.8992 7.63176C11.9447 7.75252 11.9654 7.88122 11.9598 8.01014V10.044H13.9922C14.2463 10.044 14.4899 10.1447 14.6696 10.324C14.8492 10.5033 14.9501 10.7465 14.9501 11C14.9501 11.2536 14.8492 11.4968 14.6696 11.6761C14.4899 11.8554 14.2463 11.9561 13.9922 11.9561H11.958V13.99C11.9636 14.1189 11.9429 14.2476 11.8974 14.3683C11.8518 14.4891 11.7822 14.5994 11.6928 14.6926C11.6034 14.7858 11.496 14.8599 11.3771 14.9106C11.2582 14.9613 11.1302 14.9874 11.0009 14.9874C10.8716 14.9874 10.7437 14.9613 10.6248 14.9106C10.5059 14.8599 10.3985 14.7858 10.3091 14.6926C10.2197 14.5994 10.1501 14.4891 10.1045 14.3683C10.0589 14.2476 10.0383 14.1189 10.0439 13.99V11.9561H8.00428C7.75022 11.9561 7.50657 11.8554 7.32692 11.6761C7.14728 11.4968 7.04635 11.2536 7.04635 11C7.04635 10.7465 7.14728 10.5033 7.32692 10.324C7.50657 10.1447 7.75022 10.044 8.00428 10.044H10.0457V8.01014ZM4.35017 19.7585C4.98619 20.2518 5.67578 20.6722 6.40594 21.0118L6.7091 21.1532L7.20242 19.3181L6.99612 19.2196C6.46449 18.9557 5.96086 18.639 5.49286 18.2743C5.01904 17.905 4.58336 17.4893 4.19231 17.0336L4.03983 16.8545L2.39485 17.8016L2.60653 18.0577C3.12294 18.6861 3.70775 19.2554 4.35017 19.7549V19.7585ZM0.102287 12.4485C0.216739 13.2535 0.423183 14.0428 0.717584 14.801L0.834186 15.1089L2.47916 14.1618L2.40023 13.9398C2.19795 13.3758 2.0537 12.7927 1.9697 12.1996C1.88611 11.6067 1.86386 11.0067 1.90333 10.4092L1.91589 10.1783L0.0735855 9.69487L0.0430897 10.0261C-0.0306298 10.8331 -0.0107658 11.646 0.102287 12.4485ZM1.5033 5.55018C1.33826 5.82768 1.18937 6.10698 1.05304 6.39165L0.907734 6.69601L2.74645 7.18836L2.85049 6.98247C2.95454 6.78016 3.06396 6.58322 3.17877 6.39344C3.29358 6.20366 3.42094 6.01209 3.55548 5.82589C3.77348 5.51998 4.00699 5.22538 4.25509 4.94324C4.49587 4.66692 4.75221 4.40451 5.02287 4.15727L5.1897 4.00509L4.23715 2.35617L3.97884 2.57996C3.61542 2.89604 3.27156 3.23385 2.94916 3.59152C2.61972 3.95632 2.31128 4.33948 2.02531 4.73914C1.83696 5.00411 1.66654 5.27625 1.5015 5.5448L1.5033 5.55018ZM9.04831 0.139694C8.42569 0.243791 7.81469 0.408085 7.22394 0.630254L6.91181 0.746627L7.86256 2.39018L8.08141 2.3132C8.98692 2.00011 9.94161 1.85273 10.8996 1.87814C11.1166 1.87814 11.3445 1.89783 11.5795 1.92469C11.8145 1.95154 12.0297 1.98377 12.2504 2.02853C12.471 2.07329 12.7078 2.12879 12.932 2.19503C13.1563 2.26128 13.3805 2.33826 13.6119 2.42778C13.7273 2.47393 13.8507 2.49677 13.975 2.49499C14.0993 2.49321 14.222 2.46683 14.3361 2.4174C14.4501 2.36796 14.5531 2.29644 14.6393 2.20699C14.7254 2.11753 14.7929 2.0119 14.8379 1.89623C14.8828 1.78056 14.9044 1.65713 14.9012 1.5331C14.8981 1.40907 14.8703 1.28689 14.8195 1.17365C14.7687 1.0604 14.6959 0.958339 14.6053 0.873362C14.5147 0.788386 14.4082 0.722185 14.2918 0.678593C14.0191 0.572962 13.7393 0.478073 13.4541 0.393925C13.1688 0.309778 12.8944 0.243535 12.6199 0.188034C12.3454 0.132532 12.0692 0.0895635 11.7965 0.0591273C11.5238 0.0286911 11.235 0.00899705 10.9426 4.52244e-05C10.3082 -0.0133651 9.6739 0.0333943 9.04831 0.139694Z" fill="black"/>
</g>
<defs>
<clipPath id="clip0_1_1543">
<rect width="22" height="22" fill="white"/>
</clipPath>
</defs>
</svg>
